<svg height="1518" width="720" xmlns="http://www.w3.org/2000/svg">
<rect height="1518" fill="#555" width="720"></rect>
<text fill="#7f7" font-family="Courier New" font-size="12" xml:space="preserve">
<tspan x="10" y="26">15 megabytes installed</tspan>
<tspan x="10" y="42"></tspan>
<tspan x="10" y="58">node_modules</tspan>
<tspan x="10" y="74">└─┬ angoose@0.3.21 </tspan>
<tspan x="10" y="90">  ├─┬ express@4.15.2 </tspan>
<tspan x="10" y="106">  │ ├─┬ accepts@1.3.3 </tspan>
<tspan x="10" y="122">  │ │ ├─┬ mime-types@2.1.15 </tspan>
<tspan x="10" y="138">  │ │ │ └── mime-db@1.27.0 </tspan>
<tspan x="10" y="154">  │ │ └── negotiator@0.6.1 </tspan>
<tspan x="10" y="170">  │ ├── array-flatten@1.1.1 </tspan>
<tspan x="10" y="186">  │ ├── content-disposition@0.5.2 </tspan>
<tspan x="10" y="202">  │ ├── content-type@1.0.2 </tspan>
<tspan x="10" y="218">  │ ├── cookie@0.3.1 </tspan>
<tspan x="10" y="234">  │ ├── cookie-signature@1.0.6 </tspan>
<tspan x="10" y="250">  │ ├─┬ debug@2.6.1 </tspan>
<tspan x="10" y="266">  │ │ └── ms@0.7.2 </tspan>
<tspan x="10" y="282">  │ ├── depd@1.1.0 </tspan>
<tspan x="10" y="298">  │ ├── encodeurl@1.0.1 </tspan>
<tspan x="10" y="314">  │ ├── escape-html@1.0.3 </tspan>
<tspan x="10" y="330">  │ ├── etag@1.8.0 </tspan>
<tspan x="10" y="346">  │ ├─┬ finalhandler@1.0.1 </tspan>
<tspan x="10" y="362">  │ │ ├── debug@2.6.3 </tspan>
<tspan x="10" y="378">  │ │ └── unpipe@1.0.0 </tspan>
<tspan x="10" y="394">  │ ├── fresh@0.5.0 </tspan>
<tspan x="10" y="410">  │ ├── merge-descriptors@1.0.1 </tspan>
<tspan x="10" y="426">  │ ├── methods@1.1.2 </tspan>
<tspan x="10" y="442">  │ ├─┬ on-finished@2.3.0 </tspan>
<tspan x="10" y="458">  │ │ └── ee-first@1.1.1 </tspan>
<tspan x="10" y="474">  │ ├── parseurl@1.3.1 </tspan>
<tspan x="10" y="490">  │ ├── path-to-regexp@0.1.7 </tspan>
<tspan x="10" y="506">  │ ├─┬ proxy-addr@1.1.4 </tspan>
<tspan x="10" y="522">  │ │ ├── forwarded@0.1.0 </tspan>
<tspan x="10" y="538">  │ │ └── ipaddr.js@1.3.0 </tspan>
<tspan x="10" y="554">  │ ├── qs@6.4.0 </tspan>
<tspan x="10" y="570">  │ ├── range-parser@1.2.0 </tspan>
<tspan x="10" y="586">  │ ├─┬ send@0.15.1 </tspan>
<tspan x="10" y="602">  │ │ ├── destroy@1.0.4 </tspan>
<tspan x="10" y="618">  │ │ ├─┬ http-errors@1.6.1 </tspan>
<tspan x="10" y="634">  │ │ │ └── inherits@2.0.3 </tspan>
<tspan x="10" y="650">  │ │ └── mime@1.3.4 </tspan>
<tspan x="10" y="666">  │ ├── serve-static@1.12.1 </tspan>
<tspan x="10" y="682">  │ ├── setprototypeof@1.0.3 </tspan>
<tspan x="10" y="698">  │ ├── statuses@1.3.1 </tspan>
<tspan x="10" y="714">  │ ├─┬ type-is@1.6.15 </tspan>
<tspan x="10" y="730">  │ │ └── media-typer@0.3.0 </tspan>
<tspan x="10" y="746">  │ ├── utils-merge@1.0.0 </tspan>
<tspan x="10" y="762">  │ └── vary@1.1.1 </tspan>
<tspan x="10" y="778">  ├── hooks@0.3.2 </tspan>
<tspan x="10" y="794">  ├─┬ log4js@1.1.1 </tspan>
<tspan x="10" y="810">  │ ├── semver@5.3.0 </tspan>
<tspan x="10" y="826">  │ └─┬ streamroller@0.4.0 </tspan>
<tspan x="10" y="842">  │   ├── date-format@0.0.0 </tspan>
<tspan x="10" y="858">  │   ├── debug@0.7.4 </tspan>
<tspan x="10" y="874">  │   ├─┬ mkdirp@0.5.1 </tspan>
<tspan x="10" y="890">  │   │ └── minimist@0.0.8 </tspan>
<tspan x="10" y="906">  │   └─┬ readable-stream@1.1.14 </tspan>
<tspan x="10" y="922">  │     ├── core-util-is@1.0.2 </tspan>
<tspan x="10" y="938">  │     ├── isarray@0.0.1 </tspan>
<tspan x="10" y="954">  │     └── string_decoder@0.10.31 </tspan>
<tspan x="10" y="970">  ├─┬ mongoose@3.8.3 </tspan>
<tspan x="10" y="986">  │ ├── hooks@0.2.1 </tspan>
<tspan x="10" y="1002">  │ ├─┬ mongodb@1.3.19 </tspan>
<tspan x="10" y="1018">  │ │ ├── bson@0.2.2 </tspan>
<tspan x="10" y="1034">  │ │ └── kerberos@0.0.3 </tspan>
<tspan x="10" y="1050">  │ ├── mpath@0.1.1 </tspan>
<tspan x="10" y="1066">  │ ├── mpromise@0.3.0 </tspan>
<tspan x="10" y="1082">  │ ├─┬ mquery@0.3.2 </tspan>
<tspan x="10" y="1098">  │ │ └── debug@0.7.0 </tspan>
<tspan x="10" y="1114">  │ ├── ms@0.1.0 </tspan>
<tspan x="10" y="1130">  │ ├── muri@0.3.1 </tspan>
<tspan x="10" y="1146">  │ ├── regexp-clone@0.0.1 </tspan>
<tspan x="10" y="1162">  │ └── sliced@0.0.5 </tspan>
<tspan x="10" y="1178">  ├── q@1.5.0 </tspan>
<tspan x="10" y="1194">  ├── shimmer@1.0.0 </tspan>
<tspan x="10" y="1210">  ├── traverse@0.6.6 </tspan>
<tspan x="10" y="1226">  ├─┬ uglify-js@2.8.22 </tspan>
<tspan x="10" y="1242">  │ ├── source-map@0.5.6 </tspan>
<tspan x="10" y="1258">  │ ├── uglify-to-browserify@1.0.2 </tspan>
<tspan x="10" y="1274">  │ └─┬ yargs@3.10.0 </tspan>
<tspan x="10" y="1290">  │   ├── camelcase@1.2.1 </tspan>
<tspan x="10" y="1306">  │   ├─┬ cliui@2.1.0 </tspan>
<tspan x="10" y="1322">  │   │ ├─┬ center-align@0.1.3 </tspan>
<tspan x="10" y="1338">  │   │ │ ├─┬ align-text@0.1.4 </tspan>
<tspan x="10" y="1354">  │   │ │ │ ├─┬ kind-of@3.1.0 </tspan>
<tspan x="10" y="1370">  │   │ │ │ │ └── is-buffer@1.1.5 </tspan>
<tspan x="10" y="1386">  │   │ │ │ ├── longest@1.0.1 </tspan>
<tspan x="10" y="1402">  │   │ │ │ └── repeat-string@1.6.1 </tspan>
<tspan x="10" y="1418">  │   │ │ └── lazy-cache@1.0.4 </tspan>
<tspan x="10" y="1434">  │   │ ├── right-align@0.1.3 </tspan>
<tspan x="10" y="1450">  │   │ └── wordwrap@0.0.2 </tspan>
<tspan x="10" y="1466">  │   ├── decamelize@1.2.0 </tspan>
<tspan x="10" y="1482">  │   └── window-size@0.1.0 </tspan>
<tspan x="10" y="1498">  └── underscore@1.8.3</tspan>
</text>
</svg>
